<mxfile host="app.diagrams.net" agent="Mozilla/5.0 (Windows NT 10.0; Win64; x64) AppleWebKit/537.36 (KHTML, like Gecko) Chrome/136.0.0.0 Safari/537.36" version="27.0.1">
  <diagram name="Halaman-1" id="wmBrvIReNiCz6WS3TI_8">
    <mxGraphModel dx="1206" dy="585" grid="1" gridSize="10" guides="1" tooltips="1" connect="1" arrows="1" fold="1" page="1" pageScale="1" pageWidth="827" pageHeight="1169" math="0" shadow="0">
      <root>
        <mxCell id="0" />
        <mxCell id="1" parent="0" />
        <mxCell id="x5I0-yGUxfTkmzagYiUL-1" value="Pelanggan" style="whiteSpace=wrap;html=1;" vertex="1" parent="1">
          <mxGeometry x="369" y="160" width="90" height="40" as="geometry" />
        </mxCell>
        <mxCell id="x5I0-yGUxfTkmzagYiUL-2" value="idPel" style="ellipse;whiteSpace=wrap;html=1;align=center;fontStyle=4;" vertex="1" parent="1">
          <mxGeometry x="280" y="80" width="80" height="30" as="geometry" />
        </mxCell>
        <mxCell id="x5I0-yGUxfTkmzagYiUL-3" value="Tgl_Pinjam" style="ellipse;whiteSpace=wrap;html=1;align=center;" vertex="1" parent="1">
          <mxGeometry x="40" y="247.5" width="80" height="30" as="geometry" />
        </mxCell>
        <mxCell id="x5I0-yGUxfTkmzagYiUL-4" value="NoNota" style="ellipse;whiteSpace=wrap;html=1;align=center;fontStyle=4;" vertex="1" parent="1">
          <mxGeometry x="40" y="207.5" width="80" height="30" as="geometry" />
        </mxCell>
        <mxCell id="x5I0-yGUxfTkmzagYiUL-5" value="NmPel" style="ellipse;whiteSpace=wrap;html=1;align=center;" vertex="1" parent="1">
          <mxGeometry x="374" y="80" width="80" height="30" as="geometry" />
        </mxCell>
        <mxCell id="x5I0-yGUxfTkmzagYiUL-6" value="TlpPel" style="ellipse;whiteSpace=wrap;html=1;align=center;" vertex="1" parent="1">
          <mxGeometry x="460" y="80" width="80" height="30" as="geometry" />
        </mxCell>
        <mxCell id="x5I0-yGUxfTkmzagYiUL-12" value="Film" style="whiteSpace=wrap;html=1;" vertex="1" parent="1">
          <mxGeometry x="520" y="280" width="90" height="40" as="geometry" />
        </mxCell>
        <mxCell id="x5I0-yGUxfTkmzagYiUL-13" value="idFilm" style="ellipse;whiteSpace=wrap;html=1;align=center;fontStyle=4;" vertex="1" parent="1">
          <mxGeometry x="680" y="225" width="80" height="30" as="geometry" />
        </mxCell>
        <mxCell id="x5I0-yGUxfTkmzagYiUL-14" value="JudulFilm" style="ellipse;whiteSpace=wrap;html=1;align=center;" vertex="1" parent="1">
          <mxGeometry x="680" y="265" width="80" height="30" as="geometry" />
        </mxCell>
        <mxCell id="x5I0-yGUxfTkmzagYiUL-15" value="BiayaSewa" style="ellipse;whiteSpace=wrap;html=1;align=center;" vertex="1" parent="1">
          <mxGeometry x="680" y="305" width="80" height="30" as="geometry" />
        </mxCell>
        <mxCell id="x5I0-yGUxfTkmzagYiUL-16" value="Fk KdKategori" style="ellipse;whiteSpace=wrap;html=1;align=center;" vertex="1" parent="1">
          <mxGeometry x="680" y="345" width="80" height="30" as="geometry" />
        </mxCell>
        <mxCell id="x5I0-yGUxfTkmzagYiUL-24" value="Kategori" style="whiteSpace=wrap;html=1;" vertex="1" parent="1">
          <mxGeometry x="520" y="440" width="90" height="40" as="geometry" />
        </mxCell>
        <mxCell id="x5I0-yGUxfTkmzagYiUL-25" value="KdKategori" style="ellipse;whiteSpace=wrap;html=1;align=center;fontStyle=4;" vertex="1" parent="1">
          <mxGeometry x="660" y="425" width="80" height="30" as="geometry" />
        </mxCell>
        <mxCell id="x5I0-yGUxfTkmzagYiUL-26" value="NmKategori" style="ellipse;whiteSpace=wrap;html=1;align=center;" vertex="1" parent="1">
          <mxGeometry x="660" y="465" width="80" height="30" as="geometry" />
        </mxCell>
        <mxCell id="x5I0-yGUxfTkmzagYiUL-29" value="Berkategori" style="shape=rhombus;perimeter=rhombusPerimeter;whiteSpace=wrap;html=1;align=center;" vertex="1" parent="1">
          <mxGeometry x="517.5" y="360" width="95" height="45" as="geometry" />
        </mxCell>
        <mxCell id="x5I0-yGUxfTkmzagYiUL-30" value="" style="endArrow=none;html=1;rounded=0;exitX=0.5;exitY=1;exitDx=0;exitDy=0;entryX=0.5;entryY=0;entryDx=0;entryDy=0;" edge="1" parent="1" source="x5I0-yGUxfTkmzagYiUL-12" target="x5I0-yGUxfTkmzagYiUL-29">
          <mxGeometry relative="1" as="geometry">
            <mxPoint x="350" y="330" as="sourcePoint" />
            <mxPoint x="510" y="330" as="targetPoint" />
          </mxGeometry>
        </mxCell>
        <mxCell id="x5I0-yGUxfTkmzagYiUL-31" value="1" style="resizable=0;html=1;whiteSpace=wrap;align=right;verticalAlign=bottom;" connectable="0" vertex="1" parent="x5I0-yGUxfTkmzagYiUL-30">
          <mxGeometry x="1" relative="1" as="geometry" />
        </mxCell>
        <mxCell id="x5I0-yGUxfTkmzagYiUL-32" value="" style="endArrow=none;html=1;rounded=0;exitX=0.5;exitY=1;exitDx=0;exitDy=0;entryX=0.5;entryY=0;entryDx=0;entryDy=0;" edge="1" parent="1" source="x5I0-yGUxfTkmzagYiUL-29" target="x5I0-yGUxfTkmzagYiUL-24">
          <mxGeometry relative="1" as="geometry">
            <mxPoint x="575" y="330" as="sourcePoint" />
            <mxPoint x="530" y="420" as="targetPoint" />
          </mxGeometry>
        </mxCell>
        <mxCell id="x5I0-yGUxfTkmzagYiUL-33" value="1" style="resizable=0;html=1;whiteSpace=wrap;align=right;verticalAlign=bottom;" connectable="0" vertex="1" parent="x5I0-yGUxfTkmzagYiUL-32">
          <mxGeometry x="1" relative="1" as="geometry" />
        </mxCell>
        <mxCell id="x5I0-yGUxfTkmzagYiUL-34" value="Meminjam" style="shape=rhombus;perimeter=rhombusPerimeter;whiteSpace=wrap;html=1;align=center;" vertex="1" parent="1">
          <mxGeometry x="517.5" y="157.5" width="95" height="45" as="geometry" />
        </mxCell>
        <mxCell id="x5I0-yGUxfTkmzagYiUL-35" value="" style="endArrow=none;html=1;rounded=0;exitX=1;exitY=0.5;exitDx=0;exitDy=0;entryX=0;entryY=0.5;entryDx=0;entryDy=0;" edge="1" parent="1" source="x5I0-yGUxfTkmzagYiUL-1" target="x5I0-yGUxfTkmzagYiUL-34">
          <mxGeometry relative="1" as="geometry">
            <mxPoint x="350" y="330" as="sourcePoint" />
            <mxPoint x="510" y="330" as="targetPoint" />
          </mxGeometry>
        </mxCell>
        <mxCell id="x5I0-yGUxfTkmzagYiUL-36" value="N" style="resizable=0;html=1;whiteSpace=wrap;align=right;verticalAlign=bottom;" connectable="0" vertex="1" parent="x5I0-yGUxfTkmzagYiUL-35">
          <mxGeometry x="1" relative="1" as="geometry" />
        </mxCell>
        <mxCell id="x5I0-yGUxfTkmzagYiUL-37" value="" style="endArrow=none;html=1;rounded=0;exitX=0.5;exitY=1;exitDx=0;exitDy=0;entryX=0.5;entryY=0;entryDx=0;entryDy=0;" edge="1" parent="1" source="x5I0-yGUxfTkmzagYiUL-34" target="x5I0-yGUxfTkmzagYiUL-12">
          <mxGeometry relative="1" as="geometry">
            <mxPoint x="469" y="190" as="sourcePoint" />
            <mxPoint x="550" y="260" as="targetPoint" />
          </mxGeometry>
        </mxCell>
        <mxCell id="x5I0-yGUxfTkmzagYiUL-38" value="N" style="resizable=0;html=1;whiteSpace=wrap;align=right;verticalAlign=bottom;" connectable="0" vertex="1" parent="x5I0-yGUxfTkmzagYiUL-37">
          <mxGeometry x="1" relative="1" as="geometry" />
        </mxCell>
        <mxCell id="x5I0-yGUxfTkmzagYiUL-39" value="Nota" style="whiteSpace=wrap;html=1;" vertex="1" parent="1">
          <mxGeometry x="190" y="280" width="90" height="40" as="geometry" />
        </mxCell>
        <mxCell id="x5I0-yGUxfTkmzagYiUL-40" value="Tgl_Pinjam" style="ellipse;whiteSpace=wrap;html=1;align=center;" vertex="1" parent="1">
          <mxGeometry x="40" y="287.5" width="80" height="30" as="geometry" />
        </mxCell>
        <mxCell id="x5I0-yGUxfTkmzagYiUL-41" value="FK IdPel" style="ellipse;whiteSpace=wrap;html=1;align=center;" vertex="1" parent="1">
          <mxGeometry x="40" y="362.5" width="80" height="30" as="geometry" />
        </mxCell>
        <mxCell id="x5I0-yGUxfTkmzagYiUL-43" value="FK IdFilm" style="ellipse;whiteSpace=wrap;html=1;align=center;" vertex="1" parent="1">
          <mxGeometry x="40" y="327.5" width="80" height="30" as="geometry" />
        </mxCell>
        <mxCell id="x5I0-yGUxfTkmzagYiUL-48" value="" style="endArrow=none;html=1;rounded=0;entryX=0.5;entryY=1;entryDx=0;entryDy=0;exitX=0.5;exitY=0;exitDx=0;exitDy=0;" edge="1" parent="1" source="x5I0-yGUxfTkmzagYiUL-1" target="x5I0-yGUxfTkmzagYiUL-5">
          <mxGeometry width="50" height="50" relative="1" as="geometry">
            <mxPoint x="400" y="360" as="sourcePoint" />
            <mxPoint x="450" y="310" as="targetPoint" />
          </mxGeometry>
        </mxCell>
        <mxCell id="x5I0-yGUxfTkmzagYiUL-49" value="" style="endArrow=none;html=1;rounded=0;entryX=0.5;entryY=0;entryDx=0;entryDy=0;exitX=0.5;exitY=1;exitDx=0;exitDy=0;" edge="1" parent="1" source="x5I0-yGUxfTkmzagYiUL-2" target="x5I0-yGUxfTkmzagYiUL-1">
          <mxGeometry width="50" height="50" relative="1" as="geometry">
            <mxPoint x="410" y="370" as="sourcePoint" />
            <mxPoint x="460" y="320" as="targetPoint" />
          </mxGeometry>
        </mxCell>
        <mxCell id="x5I0-yGUxfTkmzagYiUL-50" value="" style="endArrow=none;html=1;rounded=0;entryX=0.5;entryY=1;entryDx=0;entryDy=0;exitX=0.5;exitY=0;exitDx=0;exitDy=0;" edge="1" parent="1" source="x5I0-yGUxfTkmzagYiUL-1" target="x5I0-yGUxfTkmzagYiUL-6">
          <mxGeometry width="50" height="50" relative="1" as="geometry">
            <mxPoint x="424" y="170" as="sourcePoint" />
            <mxPoint x="424" y="120" as="targetPoint" />
          </mxGeometry>
        </mxCell>
        <mxCell id="x5I0-yGUxfTkmzagYiUL-51" value="" style="endArrow=none;html=1;rounded=0;entryX=0;entryY=0.5;entryDx=0;entryDy=0;exitX=1;exitY=0.5;exitDx=0;exitDy=0;" edge="1" parent="1" source="x5I0-yGUxfTkmzagYiUL-12" target="x5I0-yGUxfTkmzagYiUL-13">
          <mxGeometry width="50" height="50" relative="1" as="geometry">
            <mxPoint x="594" y="277.5" as="sourcePoint" />
            <mxPoint x="680" y="227.5" as="targetPoint" />
          </mxGeometry>
        </mxCell>
        <mxCell id="x5I0-yGUxfTkmzagYiUL-52" value="" style="endArrow=none;html=1;rounded=0;entryX=0;entryY=0.5;entryDx=0;entryDy=0;" edge="1" parent="1" target="x5I0-yGUxfTkmzagYiUL-14">
          <mxGeometry width="50" height="50" relative="1" as="geometry">
            <mxPoint x="610" y="300" as="sourcePoint" />
            <mxPoint x="690" y="250" as="targetPoint" />
          </mxGeometry>
        </mxCell>
        <mxCell id="x5I0-yGUxfTkmzagYiUL-53" value="" style="endArrow=none;html=1;rounded=0;entryX=0;entryY=0.5;entryDx=0;entryDy=0;exitX=1;exitY=0.5;exitDx=0;exitDy=0;" edge="1" parent="1" source="x5I0-yGUxfTkmzagYiUL-12" target="x5I0-yGUxfTkmzagYiUL-15">
          <mxGeometry width="50" height="50" relative="1" as="geometry">
            <mxPoint x="620" y="310" as="sourcePoint" />
            <mxPoint x="690" y="290" as="targetPoint" />
          </mxGeometry>
        </mxCell>
        <mxCell id="x5I0-yGUxfTkmzagYiUL-54" value="" style="endArrow=none;html=1;rounded=0;entryX=0;entryY=0.5;entryDx=0;entryDy=0;exitX=1;exitY=0.5;exitDx=0;exitDy=0;" edge="1" parent="1" source="x5I0-yGUxfTkmzagYiUL-12" target="x5I0-yGUxfTkmzagYiUL-16">
          <mxGeometry width="50" height="50" relative="1" as="geometry">
            <mxPoint x="620" y="310" as="sourcePoint" />
            <mxPoint x="690" y="330" as="targetPoint" />
          </mxGeometry>
        </mxCell>
        <mxCell id="x5I0-yGUxfTkmzagYiUL-55" value="" style="endArrow=none;html=1;rounded=0;entryX=0;entryY=0.5;entryDx=0;entryDy=0;exitX=1;exitY=0.5;exitDx=0;exitDy=0;" edge="1" parent="1" source="x5I0-yGUxfTkmzagYiUL-24" target="x5I0-yGUxfTkmzagYiUL-25">
          <mxGeometry width="50" height="50" relative="1" as="geometry">
            <mxPoint x="620" y="310" as="sourcePoint" />
            <mxPoint x="690" y="370" as="targetPoint" />
          </mxGeometry>
        </mxCell>
        <mxCell id="x5I0-yGUxfTkmzagYiUL-56" value="" style="endArrow=none;html=1;rounded=0;entryX=0;entryY=0.5;entryDx=0;entryDy=0;exitX=1;exitY=0.5;exitDx=0;exitDy=0;" edge="1" parent="1" source="x5I0-yGUxfTkmzagYiUL-24" target="x5I0-yGUxfTkmzagYiUL-26">
          <mxGeometry width="50" height="50" relative="1" as="geometry">
            <mxPoint x="620" y="470" as="sourcePoint" />
            <mxPoint x="670" y="450" as="targetPoint" />
          </mxGeometry>
        </mxCell>
        <mxCell id="x5I0-yGUxfTkmzagYiUL-57" value="" style="endArrow=none;html=1;rounded=0;entryX=0;entryY=0.5;entryDx=0;entryDy=0;exitX=1;exitY=0.5;exitDx=0;exitDy=0;" edge="1" parent="1" source="x5I0-yGUxfTkmzagYiUL-4" target="x5I0-yGUxfTkmzagYiUL-39">
          <mxGeometry width="50" height="50" relative="1" as="geometry">
            <mxPoint x="620" y="470" as="sourcePoint" />
            <mxPoint x="670" y="490" as="targetPoint" />
          </mxGeometry>
        </mxCell>
        <mxCell id="x5I0-yGUxfTkmzagYiUL-58" value="" style="endArrow=none;html=1;rounded=0;exitX=1;exitY=0.5;exitDx=0;exitDy=0;entryX=0;entryY=0.5;entryDx=0;entryDy=0;" edge="1" parent="1" source="x5I0-yGUxfTkmzagYiUL-3" target="x5I0-yGUxfTkmzagYiUL-39">
          <mxGeometry width="50" height="50" relative="1" as="geometry">
            <mxPoint x="130" y="233" as="sourcePoint" />
            <mxPoint x="180" y="300" as="targetPoint" />
          </mxGeometry>
        </mxCell>
        <mxCell id="x5I0-yGUxfTkmzagYiUL-59" value="" style="endArrow=none;html=1;rounded=0;exitX=1;exitY=0.5;exitDx=0;exitDy=0;entryX=0;entryY=0.5;entryDx=0;entryDy=0;" edge="1" parent="1" source="x5I0-yGUxfTkmzagYiUL-40" target="x5I0-yGUxfTkmzagYiUL-39">
          <mxGeometry width="50" height="50" relative="1" as="geometry">
            <mxPoint x="130" y="273" as="sourcePoint" />
            <mxPoint x="200" y="310" as="targetPoint" />
          </mxGeometry>
        </mxCell>
        <mxCell id="x5I0-yGUxfTkmzagYiUL-60" value="" style="endArrow=none;html=1;rounded=0;exitX=1;exitY=0.5;exitDx=0;exitDy=0;entryX=0;entryY=0.5;entryDx=0;entryDy=0;" edge="1" parent="1" source="x5I0-yGUxfTkmzagYiUL-43" target="x5I0-yGUxfTkmzagYiUL-39">
          <mxGeometry width="50" height="50" relative="1" as="geometry">
            <mxPoint x="130" y="313" as="sourcePoint" />
            <mxPoint x="200" y="310" as="targetPoint" />
          </mxGeometry>
        </mxCell>
        <mxCell id="x5I0-yGUxfTkmzagYiUL-61" value="" style="endArrow=none;html=1;rounded=0;exitX=1;exitY=0.5;exitDx=0;exitDy=0;entryX=0;entryY=0.5;entryDx=0;entryDy=0;" edge="1" parent="1" source="x5I0-yGUxfTkmzagYiUL-41" target="x5I0-yGUxfTkmzagYiUL-39">
          <mxGeometry width="50" height="50" relative="1" as="geometry">
            <mxPoint x="130" y="353" as="sourcePoint" />
            <mxPoint x="200" y="310" as="targetPoint" />
          </mxGeometry>
        </mxCell>
        <mxCell id="x5I0-yGUxfTkmzagYiUL-62" value="Mendapat" style="shape=rhombus;perimeter=rhombusPerimeter;whiteSpace=wrap;html=1;align=center;" vertex="1" parent="1">
          <mxGeometry x="187.5" y="157.5" width="95" height="45" as="geometry" />
        </mxCell>
        <mxCell id="x5I0-yGUxfTkmzagYiUL-65" value="" style="endArrow=none;html=1;rounded=0;exitX=1;exitY=0.5;exitDx=0;exitDy=0;entryX=0;entryY=0.5;entryDx=0;entryDy=0;" edge="1" parent="1" source="x5I0-yGUxfTkmzagYiUL-62" target="x5I0-yGUxfTkmzagYiUL-1">
          <mxGeometry relative="1" as="geometry">
            <mxPoint x="469" y="190" as="sourcePoint" />
            <mxPoint x="330" y="210" as="targetPoint" />
          </mxGeometry>
        </mxCell>
        <mxCell id="x5I0-yGUxfTkmzagYiUL-66" value="N" style="resizable=0;html=1;whiteSpace=wrap;align=right;verticalAlign=bottom;" connectable="0" vertex="1" parent="x5I0-yGUxfTkmzagYiUL-65">
          <mxGeometry x="1" relative="1" as="geometry" />
        </mxCell>
        <mxCell id="x5I0-yGUxfTkmzagYiUL-67" value="" style="endArrow=none;html=1;rounded=0;exitX=0.5;exitY=1;exitDx=0;exitDy=0;entryX=0.5;entryY=0;entryDx=0;entryDy=0;" edge="1" parent="1" source="x5I0-yGUxfTkmzagYiUL-62" target="x5I0-yGUxfTkmzagYiUL-39">
          <mxGeometry relative="1" as="geometry">
            <mxPoint x="305" y="193" as="sourcePoint" />
            <mxPoint x="379" y="190" as="targetPoint" />
          </mxGeometry>
        </mxCell>
        <mxCell id="x5I0-yGUxfTkmzagYiUL-68" value="N" style="resizable=0;html=1;whiteSpace=wrap;align=right;verticalAlign=bottom;" connectable="0" vertex="1" parent="x5I0-yGUxfTkmzagYiUL-67">
          <mxGeometry x="1" relative="1" as="geometry" />
        </mxCell>
      </root>
    </mxGraphModel>
  </diagram>
</mxfile>
